<svg version="1.1" xmlns="http://www.w3.org/2000/svg" xmlns:xlink="http://www.w3.org/1999/xlink" width="25.33333" height="25.33333" viewBox="0,0,25.33333,25.33333"><g transform="translate(-40.83333,-127.63334)"><g data-paper-data="{&quot;isPaintingLayer&quot;:true}" fill-rule="nonzero" stroke="none" stroke-width="0.5" stroke-linecap="butt" stroke-linejoin="miter" stroke-miterlimit="10" stroke-dasharray="" stroke-dashoffset="0" style="mix-blend-mode: normal"><path d="M40.83333,140.30001c0,-6.99561 5.67106,-12.66667 12.66667,-12.66667c6.99561,0 12.66667,5.67106 12.66667,12.66667c0,6.99561 -5.67106,12.66667 -12.66667,12.66667c-6.99561,0 -12.66667,-5.67106 -12.66667,-12.66667z" fill="#395221"/><path d="M52.74,149.572c-1.26667,0 -1.26667,-1.26667 -1.26667,-1.26667l0.00978,-0.66378c0.27555,-2.17078 0.27555,-4.43945 0,-6.61022c0,0 -0.15711,-1.25689 1.09978,-1.414c1.25689,-0.15711 1.414,1.09978 1.414,1.09978c0.294,2.38492 0.294,4.85375 0,7.23867l0.00978,0.34955c0,0 0,1.26667 -1.26667,1.26667z" fill="#ffffff"/><path d="M52.57111,129.812c1.26667,0 1.26667,1.26667 1.26667,1.26667v0.50667c-0.00137,1.00539 -0.06682,2.01162 -0.17664,3.01099c0,0 -0.13988,1.25892 -1.3988,1.11904c-1.25892,-0.13988 -1.11904,-1.3988 -1.11904,-1.3988c0.10192,-0.90628 0.16252,-1.81924 0.16114,-2.73123v-0.50667c0,0 0,-1.26667 1.26667,-1.26667z" fill="#ffffff"/></g></g></svg>