<svg version="1.1" xmlns="http://www.w3.org/2000/svg" xmlns:xlink="http://www.w3.org/1999/xlink" width="30.33334" height="28.66667" viewBox="0,0,30.33334,28.66667"><g transform="translate(-37.5,-123.76667)"><g data-paper-data="{&quot;isPaintingLayer&quot;:true}" fill-rule="nonzero" stroke-linejoin="miter" stroke-miterlimit="10" stroke-dasharray="" stroke-dashoffset="0" style="mix-blend-mode: normal"><path d="M45.5,138.13334c0,-6.16718 4.99949,-11.16667 11.16667,-11.16667c6.16718,0 11.16667,4.99949 11.16667,11.16667c0,6.16718 -4.99949,11.16667 -11.16667,11.16667c-6.16718,0 -11.16667,-4.99949 -11.16667,-11.16667z" fill="#395221" stroke="none" stroke-width="0.5" stroke-linecap="butt"/><path d="M55.99667,146.30733c-1.11667,0 -1.11667,-1.11667 -1.11667,-1.11667l0.00862,-0.58517c0.24292,-1.91371 0.24292,-3.91373 0,-5.82743c0,0 -0.1385,-1.10805 0.96954,-1.24655c1.10805,-0.1385 1.24655,0.96954 1.24655,0.96954c0.25918,2.1025 0.25918,4.27896 0,6.38146l0.00862,0.30816c0,0 0,1.11667 -1.11667,1.11667z" fill="#ffffff" stroke="none" stroke-width="0.5" stroke-linecap="butt"/><path d="M55.84778,128.88733c1.11667,0 1.11667,1.11667 1.11667,1.11667v0.44667c-0.00121,0.88633 -0.05891,1.7734 -0.15572,2.65443c0,0 -0.12332,1.10984 -1.23315,0.98652c-1.10984,-0.12332 -0.98652,-1.23315 -0.98652,-1.23315c0.08985,-0.79896 0.14327,-1.6038 0.14206,-2.40779v-0.44667c0,0 0,-1.11667 1.11667,-1.11667z" fill="#ffffff" stroke="none" stroke-width="0.5" stroke-linecap="butt"/><path d="M40,126.26667l0.66667,23.66667" fill="none" stroke="#34b509" stroke-width="5" stroke-linecap="round"/></g></g></svg>