<svg version="1.1" xmlns="http://www.w3.org/2000/svg" xmlns:xlink="http://www.w3.org/1999/xlink" width="28.24999" height="23" viewBox="0,0,28.24999,23"><g transform="translate(-47.91667,-95.85)"><g data-paper-data="{&quot;isPaintingLayer&quot;:true}" fill-rule="nonzero" stroke-linejoin="miter" stroke-miterlimit="10" stroke-dasharray="" stroke-dashoffset="0" style="mix-blend-mode: normal"><path d="M54.5,107.13336c0,-5.98308 4.85025,-10.83333 10.83333,-10.83333c5.98308,0 10.83333,4.85025 10.83333,10.83333c0,5.98308 -4.85025,10.83333 -10.83333,10.83333c-5.98308,0 -10.83333,-4.85025 -10.83333,-10.83333z" fill="#3b7830" stroke="none" stroke-width="0.5" stroke-linecap="butt"/><path d="M59.25925,113.90948c-0.83224,-0.69353 -0.13871,-1.52577 -0.13871,-1.52577l0.34947,-0.41937c-0.21276,-0.18825 -0.42351,-0.41368 -0.6304,-0.66078c-0.09309,0.06657 -0.18622,0.13312 -0.27939,0.19967l-0.55745,0.41846c0,0 -0.86667,0.65 -1.51667,-0.21667c-0.65,-0.86667 0.21667,-1.51667 0.21667,-1.51667l0.59811,-0.44821c0.08901,-0.06358 0.17799,-0.12716 0.26693,-0.19076c-0.18146,-0.2683 -0.35501,-0.52466 -0.51881,-0.75358c0,0 -0.62968,-0.88154 0.25187,-1.51122c0.88154,-0.62968 1.51122,0.25187 1.51122,0.25187c0.15992,0.22432 0.32911,0.48142 0.50601,0.75065c0.2047,-0.14948 0.40901,-0.29956 0.61286,-0.45039c0.0135,-0.02061 0.02181,-0.0317 0.02181,-0.0317l0.60647,-0.76002c0.55386,-0.45813 1.04159,-0.95484 1.4928,-1.47444c-0.29898,-0.38423 -0.56016,-0.81929 -0.78389,-1.31102c0,0 -0.42675,-0.99575 0.569,-1.42249c0.99575,-0.42675 1.42249,0.569 1.42249,0.569c0.05378,0.13884 0.11455,0.27086 0.18186,0.39629c0.51986,-0.70413 1.03302,-1.41757 1.60127,-2.10752c0,0 0.69353,-0.83224 1.52577,-0.13871c0.83224,0.69353 0.13871,1.52577 0.13871,1.52577c-0.50113,0.59262 -0.80067,1.33175 -1.2534,1.96212c-0.07839,0.10915 -0.15985,0.21871 -0.24403,0.32842c0.29097,0.12577 0.60201,0.22435 0.92793,0.29827l0.64284,0.41144c0.86458,-0.63757 2.06936,-1.1108 3.001,-1.51175c0,0 0.99574,-0.42675 1.42249,0.56899c0.42675,0.99574 -0.56899,1.42249 -0.56899,1.42249c-0.91726,0.39126 -1.74254,0.89949 -2.52236,1.46917c0.18118,0.11915 0.37003,0.22982 0.57047,0.32809c0.92264,0.45235 1.89181,0.81366 2.78485,1.32196l0.3972,0.02274c0,0 1.0623,0.21246 0.84984,1.27476c-0.21246,1.0623 -1.27476,0.84984 -1.27476,0.84984l-1.04725,-0.26614c-0.86465,-0.49628 -1.81537,-0.82617 -2.70405,-1.27804c-0.49042,-0.24937 -0.90237,-0.55425 -1.29689,-0.87145c-0.91797,0.78534 -1.82033,1.6005 -2.79678,2.33845c0.16146,0.07241 0.31405,0.14316 0.45301,0.21259l0.85933,0.7807c0,0 0.76603,0.76603 0,1.53207c-0.76603,0.76603 -1.53207,0 -1.53207,0l-0.29623,-0.37485c-0.49314,-0.24676 -1.11143,-0.51198 -1.72007,-0.80181l-0.02332,0.00964l-0.551,0.66119c0,0 -0.69353,0.83224 -1.52577,0.13871zM64.6153,108.09561c0,0 -0.56433,-0.32248 -0.56898,-0.90498c-0.09936,-0.04994 -0.19672,-0.10196 -0.29211,-0.15614c-0.50939,0.52135 -1.04215,1.01773 -1.55641,1.46111c-0.08646,0.41687 -0.43947,0.68163 -0.43947,0.68163c-0.38578,0.2893 -0.77339,0.57542 -1.16235,0.85947c0.11522,0.12514 0.23179,0.23943 0.34945,0.33914c0.12522,0.10612 0.26944,0.20836 0.42698,0.30712c1.18685,-0.70825 2.38978,-1.55305 3.44259,-2.47037c-0.06523,-0.03995 -0.13174,-0.07899 -0.19972,-0.11699z" fill="#ffffff" stroke="none" stroke-width="0.5" stroke-linecap="butt"/><path d="M50.41667,98.35v18" fill="none" stroke="#34b509" stroke-width="5" stroke-linecap="round"/></g></g></svg>