<svg version="1.1" xmlns="http://www.w3.org/2000/svg" xmlns:xlink="http://www.w3.org/1999/xlink" width="1238.41419" height="1348.38105" viewBox="0,0,1238.41419,1348.38105"><g transform="translate(226.41407,588.13826)"><g data-paper-data="{&quot;isPaintingLayer&quot;:true}" fill-rule="nonzero" stroke="none" stroke-linecap="butt" stroke-linejoin="miter" stroke-miterlimit="10" stroke-dasharray="" stroke-dashoffset="0" style="mix-blend-mode: normal"><path d="M161.51276,-367.84632l0.39063,-3.90625l2.73438,-8.59375l7.42188,-8.59375l14.45313,-3.90625l1.70257,0.46015l102.67764,-181.0369l0.65496,-0.92602l0.04116,-0.07412l0.06061,-0.06977l1.51016,-2.13518l1.76053,-1.62967l2.58312,-2.97339l1.32,-0.63961l0.95446,-0.88351l3.28959,-1.17296l4.65455,-2.25538l1.18951,0.17158l1.56181,-0.55689l6.91065,1.77903l5.15636,0.7438l1.08731,0.86353l1.34465,0.34616l3.70407,3.66348l5.58806,4.43798l0.49813,1.58153l0.85448,0.84512l1.00946,5.07273l1.04921,3.33113l-0.12877,1.29422l0.28628,1.43859l-0.81287,3.85393l-0.23752,2.38723l-0.79172,2.49254l-0.01907,0.09043l-0.03428,0.07754l-0.34337,1.08101l-122.97087,285.09389l-0.11234,0.62218l-0.22849,1.32335l-0.01909,0.04789l-0.21133,1.17047l-1.83975,6.43913l-1.37351,29.30164l217.34894,-348.03342l0.49224,-1.82129l8.59375,-7.42187l0.31515,-0.10028l0.25199,-0.21419l10.84722,-3.35775l1.80553,0.54722h35.31614l3.90625,0.39063l8.59375,2.73438l0.42702,0.36879l1.52611,0.41246l3.07736,3.56326l3.56326,3.07736l0.41246,1.52611l0.36879,0.42702l2.73438,8.59375l0.39063,3.90625v3.003l-0.16484,1.64838l-0.05446,1.65571l-6.00601,45.04505l-0.10128,0.42828l-0.02989,0.43908l-16.51652,97.5976l-0.33871,1.23678l-0.21756,1.26374l-73.10885,264.00417l1.72637,1.99895l55.97262,-42.67912l114.85207,-217.63985l1.13976,-1.71991l1.08044,-1.75778l124.62462,-163.66366l1.95011,-2.09133l1.05809,-1.46525l4.49026,-2.69816l2.56058,-1.79706l0.66226,-0.13952l2.01992,-1.21375l2.9842,0.15951l5.44475,-1.14707l4.06347,1.6553l2.45794,0.13138l3.48364,2.28899l3.86035,1.57256l1.50143,1.9505l3.66694,2.40943l2.14114,5.13581l1.82289,2.36811l0.14497,2.35208l0.26043,0.62469l-0.02913,3.12812l0.32227,5.22864l-0.60741,1.70222l-0.61759,2.79198l-135.13514,411.41141l-0.48122,1.08623l-0.36542,1.13046l-2.90406,6.63956l54.98517,-38.10853l90.53611,-74.72822l203.51515,-334.2402l1.47381,-1.95245l0.83783,-1.11763l0.01715,-0.01502l0.03637,-0.04818l2.79063,-2.42697l3.94098,-3.45049l0.04241,-0.01381l0.03082,-0.0268l4.56571,-1.47012l6.15798,-2.00543l0.03712,0.01066l0.04773,-0.01537l8.07446,2.3478l6.2308,1.78928l0.02973,0.03108l0.0413,0.01201l4.46556,4.69927l5.81268,6.07633l0.00842,0.04943l0.0266,0.028l1.06648,6.38788l0.80559,4.72843l-0.00953,0.03971l0.00734,0.04399l-1.23939,5.08932l-0.86313,3.59622l-0.02592,0.05451l-0.00539,0.02215l-0.60411,1.25941l-1.05066,2.20913l-510.55038,844.80293l-0.79586,33.24426l12.7177,57.93618l1.06128,2.54708l-0.49308,2.4364l-0.791,8.5766l-1.50859,2.78608l-0.17711,0.87511l-0.75694,0.84989l-2.96408,5.47411l-3.56402,1.85569l-2.67245,3.00064l-6.03354,1.53233l-1.00946,0.5256l-0.89183,-0.04273l-3.07081,0.77989l-8.50895,-1.33474l-2.48295,-0.11897l-2.20936,-1.65307l-8.38563,-4.19281l-1.05836,-0.66844l-2.21443,-0.59849l-4.24103,-4.91067l-2.26898,-2.20766l-0.3378,-0.81072l-0.57406,-0.6647l-0.95987,-3.01673l-2.49559,-5.98941l0.0475,-0.23469l-1.09654,-1.26968l-0.96683,-3.0386l-1.46497,-2.83227l-0.16837,-2.30108l-0.13421,-0.4218l-0.22309,-2.23086l-191.00855,316.06006l-2.35473,3.14112l-1.59485,1.39636l-2.41401,2.75032l-1.60286,0.76662l-1.1734,1.02736l-3.05429,0.99467l-4.41312,2.11072l-1.41761,-0.21186l-1.91189,0.62263l-6.59582,-1.8941l-4.88193,-0.7296l-1.30459,-1.04697l-1.60777,-0.4617l-3.41214,-3.56691l-5.35203,-4.29514l-0.59429,-1.92089l-0.99082,-1.03576l-0.8216,-4.82242l-0.94939,-3.06867l0.16231,-1.55112l-0.29841,-1.75152l0.85405,-3.55841l0.22061,-2.10825l1.20747,-3.73542l129.16552,-295.31204h-72.10158l-2.39798,9.59192l-1.32637,3.69488l-0.04576,0.07413l-0.02228,0.08422l-1.76761,3.50527l-7.9396,12.47651l-5.00162,26.25852l-1.4196,9.93717l-0.93913,3.81175l-0.87358,1.80868l-1.08134,3.37952l-1.24485,1.43669l-0.72246,1.4958l-2.33811,2.03642l-3.13039,3.6128l-1.47123,0.39507l-1.62289,1.41348l-6.70324,0.82233l-4.66208,1.25191l-1.72283,-0.46863l-1.77214,0.2174l-4.43509,-1.90584l-6.5167,-1.77262l-1.40404,-1.63107l-1.3996,-0.60144l-2.58148,-4.02338l-2.0228,-2.34989l-0.50109,-1.58375l-1.02657,-1.59997l-0.58686,-3.49943l-0.60591,-1.91503l-0.38429,-3.90688l0.00992,-6.11491l-0.51333,0.96714l-55.23603,124.90875l-0.29249,0.51559l-0.21103,0.55395l-9.00901,18.01802l-0.13258,0.20992l-0.3531,1.10974l-1.29435,1.49872l-0.31628,0.50078l-1.03414,1.06286l-4.7771,5.53138l-2.25179,0.60859l-8.70748,3.62811l-2.69701,-0.54582l-0.79685,0.21537l-5.54774,-1.49939l-5.6326,-1.13993l-0.61641,-0.54899l-2.65637,-0.71794l-6.16566,-7.13919l-1.74189,-1.55137l-1.64846,-6.49081l-38.51656,87.83654l-16.55582,41.38955l0.05968,1.03166l-1.61554,2.71548l-1.56774,3.01006l-0.80514,0.9784l-1.81732,3.05464l-1.73992,1.26808l-1.36806,1.66245l-3.15609,1.63481l-1.02399,0.7463l-3.09693,1.38828l-2.80567,1.45329l-0.16795,-0.01966l-0.55892,0.37261l-1.37283,0.72932l-1.31434,0.83011l-2.17164,1.08582l-0.56158,0.65025l-1.60825,0.43466l-1.66454,0.83227l-3.66855,1.39754l-6.95224,1.09055l-0.55955,0.15123l-0.14857,-0.04015l-1.24898,0.19592l-11.00565,-2.79508l-0.8362,-0.93889l-1.21373,-0.32804l-7.42187,-8.59375l-0.38332,-1.20474l-0.10235,-0.11492l-0.11498,-0.56811l-2.13372,-6.70598l-0.39062,-3.90625v-1.86101l-0.33046,-1.63285l0.33046,-0.7931v-6.22356l0.39063,-3.90625l0.288,-0.90513l0.07832,-0.94661l1.1261,-3.76075l21.02102,-51.05105l0.24085,-0.45124l0.16658,-0.48361l2.88709,-6.27195l-1.89185,-2.99442l-0.09633,-0.60014l-0.32995,-0.5851l-0.25218,-2.30093l-100.37952,131.47052l-0.32668,0.34943l-0.62786,1.1213l-1.49978,1.15451l-0.22666,0.24245l-0.9723,0.6805l-6.29911,4.84898l-2.59285,0.15985l-8.63835,1.80822l-2.7112,-1.10853l-1.00092,0.06171l-4.98259,-2.50819l-5.16336,-2.11115l-0.61067,-0.79545l-2.61628,-1.31701l-4.30817,-7.70262l-1.58192,-2.06057l-0.47877,-7.93487l-0.12516,-1.18016l0.03403,-0.33015l-0.11399,-1.88924l0.43346,-1.20981l0.04905,-0.47584l90.4897,-440.97797l-124.487,76.60739l-0.72414,0.67031l-1.98586,0.70809l-1.30415,0.63317l-1.55659,0.38687l-5.84887,2.08551l-1.24878,-0.32148l-0.09778,0.0243l-11.20872,-1.81694l-1.63482,-1.53888l-0.30886,-0.07951l-4.42558,-4.37708l-4.53238,-4.26639l-0.09049,-0.30582l-1.5963,-1.57881l-2.21618,-11.13667l0.02079,-0.09858l-0.36588,-1.2365l1.87525,-5.91963l0.33102,-1.56941l0.58618,-1.32593l0.6367,-2.00988l0.64402,-0.74762l139.07293,-245.20754l0.3097,-0.93223l0.06651,-0.39904l1.02749,-3.78888l0.84663,-1.65358l0.58569,-1.76298l1.98163,-3.38888l0.23794,-0.32717l0.45808,-0.89469l0.48671,-0.4044l7.65723,-10.52869l112.04662,-197.55589l0.45794,-20.60736v-7.22976l0.39063,-3.90625l2.73438,-8.59375l7.42188,-8.59375l14.45313,-3.90625l3.91002,1.05676l89.7086,-158.17042zM-65.21396,227.19873l0.39063,-3.90625l0.11203,-0.3521l0.01336,-0.36925l0.9505,-3.80893l0.92902,-2.59146l-4.28412,5.45251l-0.10571,0.10997l-0.0834,0.12773l-17.40511,21.60634l19.48281,-11.98942zM-82.34105,632.6578l86.73149,-113.59523l5.77264,-38.48429l-4.56249,-0.62564l-1.28149,-1.00323l-3.43063,-0.9272l-4.689,-5.42937l-2.38769,-1.86924l-3.48684,-10.80642l0.15158,-1.63954l-0.13492,-1.34917v-3.60991l-10.29524,6.19207l-0.51799,0.52041l-1.43009,0.57689l-2.96979,1.40471l-1.24811,0.29676l-4.88254,1.96958l-0.14349,-0.03074l-10.36572,22.61612l-1.90094,3.24862l-0.67003,1.45174l-3.36336,3.03476l-2.11468,2.32614l-0.9389,0.4291l-2.01355,1.81682l-2.50888,0.35255zM661.44542,-423.24359l-33.36818,43.82086l-63.50543,120.34012l4.68028,-3.56871l0.73649,-0.45336l2.45754,-2.26499l3.4605,-0.52361l5.18032,-1.85231l5.03308,0.30692l1.12929,-0.17087l0.71386,0.28327l4.45775,0.27183l4.02528,3.09434l4.71922,1.87265l2.51642,3.68959l0.60889,0.46807l0.43158,1.05746l1.40092,2.05404zM481.94488,-102.50804l0.21404,0.10641l2.7106,0.41117l3.03044,2.44294l5.21038,2.5903l1.67532,2.9605l1.73983,1.40254l1.12183,3.65436l1.0554,1.86502l0.27391,2.46523l0.50624,1.6491l48.85625,-64.35872l4.57077,-39.99422l-43.86065,33.44375zM688.83804,-117.86937l-20.8949,14.48162l0.02608,0.37815l-0.76566,2.19622l-0.07601,0.78247l-1.17971,3.74428l-4.5045,10.51051l-0.7684,1.39142l-0.05509,0.16367l-0.55057,0.93306l-0.52373,0.94838l-0.11295,0.13063l-0.80776,1.36894l-59.07286,80.5539l0.04325,0.17029l0.82654,1.0627l0.19813,2.97194l1.43902,5.66614l-0.74476,4.74782l0.10351,1.55263l-0.50704,1.01992l-0.24925,1.58897l-1.39754,3.66855l-1.05679,2.11359l-0.27069,0.97642l-1.0876,1.3595l-1.18273,1.87266l-1.7741,1.82338l-1.58925,1.98656l-1.7115,1.40587l-1.2141,1.24782l-0.93531,0.38971l-8.18162,5.45442l-2.01265,1.06922l-0.22629,0.16714l-0.62313,0.28412l-0.6048,0.3213l-0.27037,0.07773l-2.07366,0.94548l-32.90008,11.20003l-8.65909,7.6095l-23.0413,52.67949l0.68138,2.04414l0.86469,3.82932l0.00119,0.08711l0.02641,0.08302l0.39063,3.90625v31.53153l-0.14026,1.40259l0.011,0.1227l-0.14219,1.18922l-0.11917,1.19174l-0.03735,0.1174l-0.16735,1.39962l-3.003,13.51351l-0.54792,1.66265l-0.44853,1.69217l-3.12569,8.33518l0.22482,0.20023zM356.50569,-132.24191l9.8909,-35.71716l-8.13739,14.93792l-28.74116,73.3656l0.37138,-0.34801l0.01065,-0.00645l0.79097,-0.73853l5.36367,-4.0898l7.93336,-16.74821zM312.84941,-174.18262l131.55983,-335.82379l-195.86081,313.62522l1.50337,3.29049l0.04268,1.75915l0.06669,0.2096l0.39063,3.90625v15.01502l-0.1377,1.377l-0.01521,1.38379l-15.33978,138.05801l1.73918,-3.19264l2.23494,-6.42546l4.20082,-18.20357l0.61573,-1.81854l0.53214,-1.84474l3.003,-7.50751l0.11565,-0.22205l0.73559,-2.89637l2.48296,-2.21139l4.20967,-5.11555l3.66658,-1.89923l0.82113,-0.73132l0.96952,-0.19621l4.37997,-2.26876z" fill="#174f00" stroke-width="0.5"/><text transform="translate(142.33624,132.02703) scale(1.31338,1.31338)" font-size="40" xml:space="preserve" fill="#ffffff" fill-rule="nonzero" stroke="none" stroke-width="1" stroke-linecap="butt" stroke-linejoin="miter" stroke-miterlimit="10" stroke-dasharray="" stroke-dashoffset="0" font-family="Pixel" font-weight="normal" text-anchor="start" style="mix-blend-mode: normal"><tspan x="0" dy="0">DomeOS</tspan></text><text transform="translate(143.15315,174.44445) scale(0.5,0.5)" font-size="40" xml:space="preserve" fill="#ffffff" fill-rule="nonzero" stroke="none" stroke-width="1" stroke-linecap="butt" stroke-linejoin="miter" stroke-miterlimit="10" stroke-dasharray="" stroke-dashoffset="0" font-family="Sans Serif" font-weight="normal" text-anchor="start" style="mix-blend-mode: normal"><tspan x="0" dy="0">Spegnimento in corso....</tspan></text></g></g></svg>