<svg version="1.1" xmlns="http://www.w3.org/2000/svg" xmlns:xlink="http://www.w3.org/1999/xlink" width="18.33333" height="18.33333" viewBox="0,0,18.33333,18.33333"><g transform="translate(-61.16666,-88.63334)"><g data-paper-data="{&quot;isPaintingLayer&quot;:true}" fill-rule="nonzero" stroke="none" stroke-width="0.5" stroke-linecap="butt" stroke-linejoin="miter" stroke-miterlimit="10" stroke-dasharray="" stroke-dashoffset="0" style="mix-blend-mode: normal"><path d="M61.16667,97.80001c0,-5.06261 4.10406,-9.16667 9.16667,-9.16667c5.06261,0 9.16667,4.10406 9.16667,9.16667c0,5.06261 -4.10406,9.16667 -9.16667,9.16667c-5.06261,0 -9.16667,-4.10406 -9.16667,-9.16667z" fill="#000000"/><path d="M65.46849,100.94152c-0.64818,-0.64818 0,-1.29636 0,-1.29636l0.56005,-0.51437c1.10036,-0.62878 2.18788,-1.22955 3.31543,-1.7749c-0.21967,-0.3171 -0.43749,-0.63566 -0.74088,-0.86618c-0.97391,-0.74 -2.40717,-1.30455 -3.50748,-1.85425c0,0 -0.81989,-0.40995 -0.40995,-1.22984c0.40995,-0.81989 1.22984,-0.40995 1.22984,-0.40995c1.20099,0.60097 2.76797,1.23606 3.82585,2.05686c0.09145,0.07095 1.22313,1.43741 1.35729,1.59842l0.12138,0.04869c0.22818,0.04149 0.4727,0.18117 0.62808,0.54372c0.36109,0.84255 -0.48145,1.20364 -0.48145,1.20364c-1.54259,0.66111 -2.97177,1.44313 -4.42852,2.27556l-0.17328,0.21896c0,0 -0.64818,0.64818 -1.29636,0z" fill="#ffffff"/><path d="M76.32222,100.17111c0,0.91667 -0.91667,0.91667 -0.91667,0.91667c-0.97778,0 -2.32222,0 -3.3,0c0,0 -0.91667,0 -0.91667,-0.91667c0,-0.91667 0.91667,-0.91667 0.91667,-0.91667c0.97778,0 1.95556,0 2.93333,0h0.36667c0,0 0.91667,0 0.91667,0.91667z" fill="#ffffff"/></g></g></svg>