<svg version="1.1" xmlns="http://www.w3.org/2000/svg" xmlns:xlink="http://www.w3.org/1999/xlink" width="364.63906" height="302.46618" viewBox="0,0,364.63906,302.46618"><g transform="translate(-17.5,8.4676)"><g data-paper-data="{&quot;isPaintingLayer&quot;:true}" fill-rule="nonzero" stroke-linejoin="miter" stroke-miterlimit="10" stroke-dasharray="" stroke-dashoffset="0" style="mix-blend-mode: normal"><path d="M299,201.30001c0,-12.5 12.5,-12.5 12.5,-12.5h2c3.65407,0.59114 7.9155,-2.7312 11.21645,-4.0485c6.07921,-2.42601 12.72724,-3.56357 18.19612,-7.38534c3.67095,-2.56534 6.67064,-7.43749 9.13393,-10.91997c1.06353,-1.76075 1.92868,-3.65776 3.19059,-5.28223c0.64972,-0.83639 2.20409,-0.97576 2.46755,-2.00156c0.4074,-1.58625 -0.61506,-3.22713 -0.70465,-4.86241c-0.29174,-5.32535 -0.09397,-10.6675 0,-16c0.03812,-2.16357 0.62061,-4.35384 0.25528,-6.48668c-0.13918,-0.81252 -2.06236,-4.13384 -3.31637,-6.52334c-1.45432,-0.0644 -3.00107,-0.48998 -4.43892,-0.48998c-6.66667,0 -13.33333,0 -20,0c-16.33333,0 -32.66667,0 -49,0c0,0 -0.11656,0 -0.32716,-0.01126l-1.44112,-0.04958c-1.00779,0.21403 -1.99583,0.56715 -3.02337,0.64208c-0.03028,0.00221 -0.03846,-0.01076 -0.03132,-0.03363c-0.50327,0.57188 -0.95303,1.20924 -1.60539,1.58552c-2.78801,1.60812 -6.14812,2.1237 -8.83472,3.89606c-1.88308,1.24228 -3.36167,3.05988 -5.31219,4.19334c-7.5359,4.3792 -16.30186,7.0748 -23.68781,11.80666c-1.66306,1.06545 -2.95709,2.63876 -4.60089,3.73371c-5.84446,3.89305 -12.01528,7.27304 -17.97702,10.98398c-3.72538,2.90628 -13.15036,10.351 -17.09015,13.0624c-2.47891,1.70602 -5.24145,2.98484 -7.66811,4.76439c-6.77492,4.96828 -12.87261,11.34829 -20.10723,15.7264c-1.68922,1.02226 -3.73913,1.32029 -5.47416,2.2627c-5.46171,2.96663 -10.36081,6.89475 -15.80424,9.8948c-3.1772,1.75106 -6.57727,3.07859 -9.74103,4.8538c-7.49078,4.20317 -6.78534,6.08338 -16.27181,7.52722c-3.95557,0.60204 -8.00127,0.13066 -12.00228,0.16141c-7.66448,0.05891 -15.33511,0.01552 -23,0c-12.25735,-0.02482 -15.47552,0.68296 -27.38417,-2.22948c-4.95947,-1.21292 -10.7198,-1.32346 -14.59457,-4.64817c-8.45885,-7.25802 -7.2797,-14.62043 -7.52126,-23.62235c0,-13.05914 -0.04403,-25.16279 2.19217,-38.18346c2.03798,-11.86647 3.96792,-15.88828 7.30287,-27.29952c2.33605,-7.9933 3.01488,-13.4786 7.11137,-20.64727c5.26171,-9.20775 6.69781,-8.77035 13.66331,-16.29899c1.98884,-2.14964 3.47865,-4.77345 5.68762,-6.69617c5.13569,-4.4702 17.16398,-12.91949 24.10551,-15.56056c9.64951,-3.67137 19.41676,-2.82149 29.43715,-2.81404c10.16649,0.00756 19.62553,0.75262 29.43401,3.48095c0,0 12.01905,3.43401 8.58504,15.45306c-3.43401,12.01905 -15.45306,8.58504 -15.45306,8.58504c-7.51835,-2.22809 -14.75709,-2.5253 -22.56599,-2.51905c-6.53866,0.00524 -14.31625,-1.34043 -20.56285,1.18596c-3.78493,1.53078 -13.66282,8.47271 -15.89449,10.43944c-1.70946,1.50653 -2.76913,3.62744 -4.31238,5.30383c-4.74573,5.15514 -7.10944,6.05304 -10.33669,11.70101c-2.42944,4.25172 -3.6974,11.25969 -4.88863,15.35273c-3.00428,10.32266 -4.88625,14.24566 -6.69713,24.70048c-1.99433,11.51395 -1.80783,22.24873 -1.80783,33.81655c-0.07488,1.31607 0.16512,2.69454 -0.11127,3.97068c4.27956,-0.94586 7.11725,1.13938 12.64228,1.57191c8.42958,0.65992 17.46672,-0.04259 25.969,-0.04259c5.66617,0 11.34514,0.55352 16.99772,0.16141c2.52447,-0.17512 6.46979,-3.76306 7.7282,-4.47278c3.33235,-1.87939 6.90509,-3.30551 10.25897,-5.1462c5.57835,-3.06152 10.6145,-7.049 16.19576,-10.10521c1.41736,-0.77612 3.13572,-0.91338 4.52584,-1.73729c1.40882,-0.835 2.44951,-2.17931 3.75364,-3.16989c4.7721,-3.62477 9.30662,-7.55987 14.13913,-11.10371c2.64509,-1.93974 5.62802,-3.37866 8.33189,-5.2356c2.85967,-1.96394 14.96086,-11.42588 16.90985,-12.9376c5.96493,-3.74102 12.16607,-7.10806 18.02298,-11.01602c1.90801,-1.2731 3.46102,-3.03946 5.39911,-4.26629c5.82943,-3.69008 12.09974,-6.64033 18.27601,-9.71485c1.94716,-0.96928 4.15965,-1.37869 6.03618,-2.47849c1.73663,-1.0178 2.97633,-2.74711 4.68781,-3.80666c2.52561,-1.56356 5.24232,-2.80537 7.95337,-4.0193c0.36959,-0.16549 0.87223,0.13583 1.21191,-0.08464c0.79084,-0.51328 1.1676,-1.55728 2,-2c4.83326,-2.57062 8.03262,-2.77303 13.33992,-3.80604l4.16766,-0.05991c0.0421,-0.00092 0.06406,-0.00092 0.06406,-0.00092c19.33333,0 38.66667,0 58,0c5.86829,0 12.14243,-0.56879 18,0c3.21174,0.31188 6.77839,-0.26351 9.59017,1.31966c5.65339,3.18315 9.22837,10.27079 11.74955,15.92099c1.42609,3.19601 3.23287,6.31143 3.905,9.74603c0.73722,3.76726 0.20507,7.67493 0.25528,11.51332c0.06977,5.33288 0.1777,10.66963 0,16c-0.14612,4.38306 0.53657,8.93141 -0.70465,13.13759c-0.91751,3.10924 -3.75429,5.28784 -5.53245,7.99845c-1.00394,1.53039 -1.87294,3.14517 -2.80941,4.71776c-4.1699,5.79828 -8.82909,12.85074 -14.86607,17.08004c-7.56035,5.29652 -15.45907,7.26794 -23.80388,10.61466c-7.0256,2.81765 -13.11114,5.70394 -20.78355,5.95151h-2c0,0 -12.5,0 -12.5,-12.5z" fill="#91ff66" stroke="none" stroke-width="0.5" stroke-linecap="butt"/><path d="M289.5,98.80001c-10.49235,0 -12.17755,-8.80716 -12.44821,-11.63623c-1.23895,-1.87354 -2.01355,-4.03824 -3.21856,-5.93891c-1.72983,-1.68264 -3.67183,-3.59001 -5.82512,-4.69592c-1.65708,-0.85106 -3.60257,-1.18097 -5.09553,-2.29511c-0.5072,-0.3785 -1.14956,-0.87736 -1.58367,-1.42961c-1.27589,0.02864 -2.55263,-0.00422 -3.82891,-0.00422c-4.32631,0 -8.67506,0.11639 -13,0c-4.38625,-0.11804 -9.74635,0.93871 -13.77679,2.85641c-1.75511,0.83509 -3.26217,2.12954 -5,3c-3.61344,1.80993 -7.92677,3.03375 -11.29835,5.31037c-1.94028,1.94028 -3.22463,4.51622 -5.33744,6.26705c-2.33912,1.93838 -6.20697,2.68971 -8.57808,4.66307c-0.77616,0.64596 -0.92539,1.81269 -1.56617,2.59313c-0.66189,0.80615 -1.69635,1.27011 -2.30265,2.11885c-1.54099,2.1572 -2.40212,4.74873 -3.93628,6.91078c-1.73173,2.44048 -3.01273,5.18064 -4.74293,7.6222c-1.77879,2.51011 -3.67889,4.95664 -5.8187,7.16736c0.08926,1.31502 -0.14261,2.66582 -0.14261,3.99079c0,1.66666 0,3.33334 0,5c0,5.66666 0,11.33334 0,17c0,0 0,12.5 -12.5,12.5c-12.5,0 -12.5,-12.5 -12.5,-12.5c0,-7.33334 0,-14.66666 0,-22c0,-3.61149 -0.1795,-11.00025 0.9515,-13.78355c0.99227,-2.44189 7.24892,-8.3841 9.08719,-11.05831c0.78433,-1.141 1.09224,-2.55698 1.82817,-3.72978c3.38653,-5.39685 7.0393,-10.87721 11.18996,-15.61839c1.53528,-1.7537 2.67574,-3.87663 4.43383,-5.40687c1.34379,-1.16963 3.22531,-1.54476 4.70047,-2.54363c1.02182,-0.6919 1.67515,-1.86425 2.73724,-2.4926c0.57575,-0.34062 1.43056,0.07475 1.98422,-0.3007c0.27428,-0.186 -0.28845,-0.73392 -0.07935,-0.99103c1.41043,-1.73422 3.16128,-3.16128 4.74192,-4.74192c5.36794,-3.57057 11.02504,-5.85604 16.70165,-8.68963c1.73903,-0.86807 3.22086,-2.21741 5,-3c4.13053,-1.81689 8.63223,-2.6502 13.01486,-3.72483c1.42122,-0.34849 2.75432,-1.07359 4.20607,-1.25735c5.12861,-0.64918 10.79941,-0.16141 16.00228,-0.16141c4.18759,0 10.00591,-0.81558 14.00228,0.16141c2.99048,0.73108 5.95122,1.81105 8.58514,3.40476c1.02827,0.62217 1.12048,2.18092 2,3c0.23208,0.21613 0.61909,-0.43342 0.90447,-0.29511c1.68355,0.81591 3.19488,1.95215 4.72776,3.0247c3.4308,2.40053 6.50001,5.30491 9.44712,8.27938c1.64915,2.43905 2.90006,5.12759 4.47375,7.61598c1.00932,1.59598 2.77754,2.74532 3.40797,4.52533c0.87264,2.46386 0.63434,5.18903 0.9515,7.78355v1c0,0 0,12.5 -12.5,12.5z" fill="#66a3ff" stroke="none" stroke-width="0.5" stroke-linecap="butt"/><path d="M244.78902,154.86691c-0.13058,-2.26132 0.60426,-4.61885 1.29936,-6.77156c0.37209,-3.13316 2.31077,-11.29534 12.41162,-11.29534c12.5,0 12.5,12.5 12.5,12.5l-0.64146,4.95284c-1.36356,2.75213 -0.3897,7.07656 -1.31005,9.83069c-0.505,1.51121 -2.05154,2.44922 -2.91536,3.7881c-0.15335,0.23767 -1.3536,5.09856 -1.63163,5.92321c-0.52336,1.85403 -0.81472,3.78985 -1.57007,5.56207c-0.28046,0.65802 -1.24435,0.88587 -1.46778,1.56538c-0.43541,1.32422 0.09358,2.86342 -0.41515,4.16124c-0.1963,0.50075 -0.6192,0.84865 -1.06056,1.18771c0.00476,0.00816 0.0088,0.01772 0.01206,0.02875c0.9519,3.21779 0,8.62577 0,12c0,3.29633 -0.6043,7.23968 -0.09366,10.4727c0.56254,3.56158 2.30881,6.98916 2.93225,10.52502c0.33134,1.87915 -0.32115,3.06671 0.38497,4.66545c1.25827,2.84888 3.34044,5.28007 4.63284,8.11362c0.78665,1.72471 0.88265,3.71916 1.71583,5.42188c0.55336,1.13085 1.58297,1.95813 2.37446,2.9372c1.29717,2.27922 2.63445,4.53608 3.89151,6.83767c0.31155,0.57041 0.28897,1.38634 0.81138,1.77302c0.66987,0.49582 1.72893,0.15753 2.42204,0.62031c1.17613,0.78531 1.90675,2.10289 3,3c0.37012,0.30372 2.99696,0.14184 3.42836,0.13314c1.99959,-0.04036 4,0 6,0c4.85095,0 9.26073,-0.23933 13.99772,-0.83859c4.53654,-0.57391 8.32467,-3.79176 12.41211,-5.84175c3.73121,-1.87132 7.30837,-4.04913 10.81007,-6.3211c0.08036,-0.05214 7.67131,-5.2635 12.43479,-8.1631c0.18025,-4.24361 0.40168,-8.58165 -0.03387,-12.6017c-0.18944,-1.74847 -1.09429,-3.34421 -1.56243,-5.03947c-0.28378,-1.02764 -0.19824,-2.17754 -0.69152,-3.12266c-0.73723,-1.41253 -2.34001,-2.30225 -2.91536,-3.7881c-0.64421,-1.66367 -0.58358,-3.51375 -0.74138,-5.29964c-2.62935,-3.29675 -7.7896,-10.57579 -9.25862,-13.70036c-0.72316,-1.53815 -0.41356,-3.4047 -1,-5c-0.32683,-0.88908 -1.25682,-1.4444 -1.68045,-2.29165c-0.95254,-1.90507 -1.26864,-4.11827 -2.40419,-5.92025c-3.27855,-5.20267 -8.71866,-8.68903 -12.75993,-13.32419c-6.57783,-7.54449 -8.64202,-10.79052 -13.00756,-17.31369c0,0 -6.93375,-10.40063 3.46688,-17.33438c10.40063,-6.93375 17.33438,3.46688 17.33438,3.46688c3.62776,5.46825 5.53064,8.46823 10.99244,14.68631c7.22236,8.22243 10.39154,8.89225 15.24007,16.67581c1.55865,2.50217 2.27746,5.44305 3.59581,8.07975c0.65204,1.30408 1.80022,2.34597 2.31955,3.70835c0.60541,1.5882 0.32778,3.43891 1,5c1.95754,4.54596 6.26155,7.74394 8.59044,12.11132c1.10156,2.06575 1.73035,4.37637 2.19966,6.66995c0.05478,0.26773 -0.94437,-0.00683 -0.7901,0.21873c0.20797,0.30407 0.92433,-0.11977 1.08464,0.21191c1.49872,3.1008 5.31304,14.33532 5.74605,17.83787c0.85091,6.88289 0.12082,14.7045 0.12082,21.73377c-0.88247,3.56422 -0.43768,7.76017 -2.64743,10.69265c-2.06365,2.73859 -6.083,3.16997 -9.06903,4.85584c-4.17955,2.35971 -7.97075,5.3502 -12.00344,7.95295c-9.8111,6.33219 -21.09615,13.69119 -32.77782,15.83715c-5.89852,1.08358 -11.96459,1.16141 -18.00228,1.16141c-7.75038,0 -15.6199,0.34784 -22.57164,-3.86687c-1.20932,-0.73318 -1.82284,-2.21623 -3,-3c-1.06399,-0.70842 -2.62419,-0.52866 -3.57796,-1.37968c-6.33286,-5.6506 -7.39208,-8.58168 -11.2971,-15.38932c-1.20851,-1.6876 -2.68592,-3.21195 -3.62553,-5.0628c-1.05072,-2.0697 -1.32652,-4.46375 -2.28417,-6.57812c-1.54707,-3.41574 -4.10878,-6.35407 -5.36715,-9.88638c-1.05971,-2.97462 -1.15396,-6.21064 -1.61503,-9.33455c-0.55324,-3.74841 -2.54115,-7.62802 -3.06775,-11.47499c-0.59296,-4.33172 -0.09366,-9.14754 -0.09366,-13.52729c0,-6.64291 -0.80603,-14.36228 0.9515,-20.78355c0.2489,-0.90936 1.64022,-1.12854 2,-2c0.23979,-0.58079 -0.61607,-1.2434 -0.41515,-1.83876c0.79764,-2.36362 2.52892,-4.41587 2.96215,-6.87254c1.26095,-3.815 2.34595,-8.44202 4.29051,-11.93825z" fill="#66a3ff" stroke="none" stroke-width="0.5" stroke-linecap="butt"/><path d="M252.34419,87.85771c2.23558,-1.83328 9.61512,-6.77607 16.99465,0.60346c8.83884,8.83884 0,17.67767 0,17.67767l-1,1c-2.01843,1.56988 -3.66619,3.79819 -6.05529,4.70965c-2.77634,1.05921 -8.21597,0.95151 -11.78355,0.95151c0,0 -12.5,0 -12.5,-12.5c0,-12.5 12.5,-12.5 12.5,-12.5c0.78902,0 1.39429,0.0202 1.84419,0.0577z" fill="#66a3ff" stroke="none" stroke-width="0.5" stroke-linecap="butt"/><path d="M247.33884,234.46117c8.83883,8.83883 0,17.67767 0,17.67767l-2.90508,2.56179c-2.91309,1.93586 -4.18181,2.87667 -6.26698,5.52424c-0.73013,0.92705 -1.99666,1.47255 -2.43784,2.56703c-1.30276,3.23194 -2.78697,6.53571 -5.14827,9.0983c-0.64739,0.70258 -12.06744,9.36497 -12.1071,9.39008c-0.70099,0.44385 -1.6913,0.2246 -2.40193,0.65286c-0.8075,0.48665 -1.17892,1.53661 -2,2c-3.62123,2.0437 -5.55967,1.8111 -9.01711,3.56495c-1.9223,0.97513 -3.57156,2.48471 -5.57926,3.26911c-3.3058,1.29156 -6.82767,1.94132 -10.24151,2.91198c-5.97446,0.1259 -13.61409,1.17458 -19.22861,-1.37767c-3.39873,-1.54499 -7.72436,-2.49156 -9.64568,-5.69263c-2.63064,-4.38284 -2.35948,-13.46409 -2.35948,-19.30887c0,-9.38309 0.56022,-18.98831 3.64501,-27.96349c3.86917,-11.25732 10.05369,-21.80534 14.02704,-33.07999c2.44853,-6.94787 4.56239,-14.13284 8.25958,-20.60653c-0.41949,-4.42448 0.06837,-8.90131 0.06837,-13.34999c0.03814,-7.386 0.41527,-9.89475 -1.60921,-17.89885c-0.8212,-3.24677 -2.27525,-6.30034 -3.48281,-9.42407c-0.7606,-1.96753 -1.58698,-3.90893 -2.40103,-5.85509c-8.50301,2.37102 -16.17821,2.39055 -25.43268,3.57849c-6.92676,0.88915 -13.82705,1.97351 -20.74001,2.96421c-3.7719,0.54056 -7.53016,1.18479 -11.31455,1.62954c-0.2311,0.02716 -0.49536,0.09428 -0.76949,0.16905c-0.11429,0.62682 -0.25421,1.26341 -0.25023,1.83673c0.02085,2.99993 0,6 0,9c0,4.58947 -0.54546,9.20446 -0.06083,13.76828c0.31561,2.97213 1.21206,5.85351 1.81809,8.78026c0,0 2.45145,12.25726 -9.80581,14.70871c-12.25726,2.45145 -14.70871,-9.80581 -14.70871,-9.80581c-0.72731,-3.73991 -1.78574,-7.43041 -2.18191,-11.21973c-0.83468,-7.98354 -0.10646,-17.18019 -0.06083,-25.23172c0.03163,-5.58256 -0.6052,-13.60696 3.92962,-18.04101c8.57068,-8.38023 18.94253,-8.70031 29.73612,-10.32368c7.07893,-1.06468 14.15942,-2.12659 21.25999,-3.03578c5.8295,-0.74644 11.71144,-1.07048 17.52527,-1.93045c5.86903,-0.86813 10.89631,-3.48178 16.92091,-1.8347c11.34601,3.10192 15.56686,11.33318 19.72011,21.48854c4.97299,12.15975 6.85492,23.62156 6.90798,36.67708c0,7.21096 1.24643,15.81786 -0.9515,22.78354c-0.51617,1.63582 -2.26919,2.60416 -3.11298,4.0976c-0.55752,0.98676 -0.57811,2.20127 -1.03252,3.23956c-0.81136,1.85392 -2.02832,3.52147 -2.75331,5.41083c-2.17771,5.6752 -3.77981,11.5658 -6.07718,17.19362c-3.05738,7.48959 -6.98823,14.62305 -9.71752,22.23834c-1.87639,5.23551 -2.37645,11.50772 -2.35499,17.03651c0.00584,1.50402 0.38626,3.09851 0.50188,4.63041c0.76919,-0.0302 1.53114,-0.04868 2.26435,-0.00959c2.89028,-0.83669 5.48113,-2.48699 8.17923,-3.81891c2.21043,-1.09118 4.95866,-1.02821 6.98289,-2.43505c3.79504,-2.63752 7.51657,-5.31942 11.49097,-7.95706c0.8399,-0.55741 0.37208,-2.01508 0.85173,-2.9017c1.03042,-1.90468 2.26471,-3.69913 3.56216,-5.43297c3.83112,-5.11969 8.39132,-8.90523 13.73302,-12.47576l-0.90508,0.5618c0,0 8.83883,-8.83883 17.67767,0z" fill="#8c3838" stroke="none" stroke-width="0.5" stroke-linecap="butt"/><path d="M202.5,63.80001c-12.5,0 -12.5,-12.5 -12.5,-12.5v-1c0.11781,-3.651 0.58553,-7.39565 1.9515,-10.78354c0.31221,-0.77434 1.16418,-1.28262 1.38289,-2.08837c0.32796,-1.20822 -0.23679,-2.57784 0.20196,-3.75039c1.82918,-4.88846 3.0635,-5.18875 5.15228,-8.65178c1.19051,-1.97377 1.9209,-4.26518 3.4404,-5.99845c1.5001,-1.71113 3.62481,-2.75207 5.43722,-4.1281c4.55174,-2.86884 8.75595,-7.74079 12.396,-11.67906c3.02245,-3.27006 5.02675,-7.69929 8.81798,-10.0349c2.78636,-1.71656 6.46634,-1.03105 9.71977,-1.3854c3.53163,-0.38466 9.59798,-0.36342 12.73377,0.12082c2.39828,0.37035 4.59775,1.65641 7,2c2.24171,0.32062 4.54065,-0.25659 6.79352,-0.02717c2.02817,0.20655 6.66231,1.68128 9.01808,2.16825c2.42989,0.50229 4.9423,0.64207 7.32018,1.35082c1.97464,0.58855 3.60872,2.30566 5.66174,2.48094c1.77688,0.15171 3.61263,-0.18414 5.34462,0.24073c1.84182,0.45181 3.3865,1.74006 5.1848,2.3422c3.63063,1.21567 7.70109,1.18726 11.10203,2.94592c1.50113,0.77625 2.28863,2.54744 3.72241,3.44199c1.52295,0.95018 3.33333,1.33334 5,2c4.39162,4.22153 11.02726,6.31076 14.5324,11.52118c3.53943,5.26139 3.08646,11.1014 3.08646,16.91434c0,11.16662 -1.38382,21.47124 -5.9515,31.78354c-0.69617,1.57171 -1.03136,3.31382 -1.91536,4.78809c-0.76744,1.27988 -2.04174,2.18184 -2.96636,3.35322c-2.23392,2.83012 -3.79241,6.14929 -6,9c-0.70892,0.91545 -1.7985,1.48347 -2.52625,2.38402c-0.99507,1.23134 -1.0914,2.97276 -1.59203,4.47467c-1.38183,2.77905 -2.83847,5.52215 -4.14549,8.33716c-0.5195,1.11889 -3.4403,8.86526 -3.76987,9.45094c-0.38687,0.68752 -1.4092,0.87835 -1.75563,1.5871c-0.47825,0.97846 -0.10545,2.23844 -0.59078,3.21341c-0.74272,1.49202 -2.05048,2.63026 -3,4c-0.31178,0.44976 0.20182,1.08072 0.21328,1.62785c0.06274,2.99635 0,6.00292 0,9c0,11 0,22 0,33c0,6.45738 1.1913,14.56942 -0.33439,20.87191c-0.44619,1.84319 -1.74732,3.38408 -2.3422,5.18479c-1.1621,3.51771 -1.77332,7.32149 -2.96488,10.89614c-0.45592,1.36777 -1.33899,2.61907 -1.51995,4.04943c-0.39632,3.13278 -0.59668,6.34552 -1.61503,9.33455c-0.08778,0.25767 -2.19355,3.69169 -2.31722,5.19046c-0.31214,3.78287 -0.85841,7.76698 -2.77321,11.04435c-1.19766,2.04991 -3.1962,3.51147 -4.7943,5.2672c0,0 -8.83884,8.83883 -17.67767,0c-8.83883,-8.83883 0,-17.67767 0,-17.67767c0.06512,-0.03958 0.13446,-0.09617 0.20596,-0.1615c0.00369,-0.50309 0.144,-1.04993 0.22654,-1.52696c0.64896,-3.75083 2.131,-7.33363 3.68278,-10.80953c0.70914,-1.58846 0.0451,-2.81531 0.38497,-4.66545c0.83595,-4.55056 3.1362,-8.74166 4.25735,-13.20607c0.74215,-2.95524 1.66609,-5.88456 2.91564,-8.66357c0.43003,-0.9564 -0.33439,-2.07945 -0.33439,-3.12808c0,-4 0,-8 0,-12c0,-11 0,-22 0,-33c0,-4.28095 -0.65722,-9.32995 0.09366,-13.52729c0.47699,-2.66639 1.04494,-5.35845 2.11962,-7.84486c0.66125,-1.52988 2.25248,-2.51037 3,-4c0.74598,-1.48657 0.65654,-3.3034 1.40922,-4.78658c0.49709,-0.97953 1.62581,-1.50518 2.24437,-2.41291c1.29861,-1.90573 1.26817,-4.45316 2.23013,-6.54906c1.19268,-2.59859 2.56967,-5.10856 3.85451,-7.66284c3.53251,-10.59754 12.93391,-17.51423 16.82493,-27.55328c1.12039,-2.89068 0.89866,-5.71641 1.38497,-8.66545c0.17151,-1.04004 0.78359,-1.96836 1,-3c0.2738,-1.30525 -0.16141,-2.66406 -0.16141,-3.99772c0,-2 -0.04187,-4.00044 0,-6c0.0103,-0.49179 -0.39672,-1.43404 0.09366,-1.47271c0.75275,-0.05935 1.54462,2.36308 0.8347,2.10585c-4.45069,-1.6127 -4.47532,-2.21718 -7.3095,-5.19763c-1.66667,-0.66666 -3.47869,-1.04719 -5,-2c-0.96758,-0.606 -1.37864,-1.85422 -2.27759,-2.55802c-0.17444,-0.13657 -0.36462,0.35144 -0.58362,0.31798c-2.12919,-0.32536 -4.27009,-0.69362 -6.31436,-1.37205c-1.03359,-0.34302 -1.76098,-1.38472 -2.8152,-1.6578c-0.86036,-0.22286 -1.77676,0.3746 -2.65538,0.24074c-2.31146,-0.35216 -4.59613,-0.92936 -6.80954,-1.68278c-1.25525,-0.42728 -2.25965,-1.45202 -3.52872,-1.83628c-1.50729,-0.4564 -3.13321,-0.35213 -4.67982,-0.64918c-2.36288,-0.45383 -4.58296,-1.6469 -6.98192,-1.83176c-2.39508,-0.18455 -4.82839,0.31216 -7.20648,-0.02717c-3.44405,-0.49144 -6.78795,-1.94624 -10.26623,-1.87917c-0.99982,0.01928 -2,0 -3,0c-0.41024,0 -0.87456,0.1236 -1.3264,0.21869c-0.19817,0.85061 -0.63506,1.67954 -1.13585,2.361c-1.87843,2.55615 -4.45376,4.51824 -6.69891,6.75915c-3.42173,3.41524 -6.9166,6.82974 -10.90508,9.56179c-0.70982,-0.16157 -0.78414,1.22883 -1.12238,1.87346c-0.6787,1.29354 -1.46434,2.54693 -2.41074,3.65967c-0.11588,0.13625 -0.41545,-0.48902 -0.43698,-0.31145c-0.09063,0.74741 0.4156,1.52767 0.20196,2.24961c-1.13059,3.82048 -3.11212,4.368 -2.66561,7.12809v1c0,0 0,12.5 -12.5,12.5z" fill="#8c3838" stroke="none" stroke-width="0.5" stroke-linecap="butt"/><path d="M222.5,166.80001c-12.5,0 -12.5,-12.5 -12.5,-12.5v-2c0.10853,-2.01577 -0.54865,-3.99997 -0.83859,-5.99773c-0.68577,-4.72502 -0.17475,-10.02866 -0.16166,-14.81771c-0.91375,-1.01179 -1.95814,-1.95658 -2.35828,-3.23172c-0.72236,-2.30193 -0.14685,-4.8356 -0.52064,-7.21908c-0.77111,-4.91702 -3.96836,-8.79382 -4.95942,-13.73149c-0.30565,-1.52283 -0.42092,-8.52547 -1.06204,-8.06852c0,0 -6.93375,-10.40063 3.46688,-17.33438c10.40063,-6.93375 17.33438,3.46687 17.33438,3.46687c1.18768,2.10381 2.76253,4.03202 3.56302,6.31145c0.56485,1.60844 0.17562,3.41133 0.44269,5.09501c0.34421,2.16996 0.81858,4.33087 0.93225,6.52501c0.08679,1.67534 1.76563,2.88431 2.31109,4.47074c1.10234,3.20607 2.14312,6.45858 2.72949,9.79777c0.16311,0.92887 -0.84449,1.89519 -0.52064,2.78092c0.57234,1.56531 2,2.66666 3,4l0.36855,4.56934c0.27291,1.40707 0.27291,2.38351 0.27291,2.38351c0,0.26022 -0.00548,0.53153 -0.01516,0.81204l0.01516,0.18796c0,0 0,0.45532 -0.0869,1.19217c-0.18891,2.91037 -0.58096,6.39119 -0.0745,8.80555c0.68909,3.285 1.08406,6.64668 1.16141,10.00228v2c0,0 0,12.5 -12.5,12.5z" fill="#8c3838" stroke="none" stroke-width="0.5" stroke-linecap="butt"/><path d="M32.5,98.30001l5,163" fill="none" stroke="#41da7a" stroke-width="30" stroke-linecap="round"/><path d="M37.33334,115.76667l-11.33333,-10.33334l-1,18z" fill="none" stroke="#ffffff" stroke-width="5" stroke-linecap="round"/><path d="M30,111.43334l-1.66666,6.33334" fill="none" stroke="#ffffff" stroke-width="5" stroke-linecap="round"/><path d="M30,114.43334l2.66667,-0.33334" fill="none" stroke="#ffffff" stroke-width="5" stroke-linecap="round"/><path d="M23.66667,131.43333l-0.33333,21.66667" fill="none" stroke="#34b509" stroke-width="5" stroke-linecap="round"/></g></g></svg>