<svg version="1.1" xmlns="http://www.w3.org/2000/svg" xmlns:xlink="http://www.w3.org/1999/xlink" width="937.69338" height="915.73141" viewBox="0,0,937.69338,915.73141"><g transform="translate(123.54688,197.74828)"><g data-paper-data="{&quot;isPaintingLayer&quot;:true}" fill="#000000" fill-rule="nonzero" stroke="none" stroke-width="0.5" stroke-linecap="butt" stroke-linejoin="miter" stroke-miterlimit="10" stroke-dasharray="" stroke-dashoffset="0" style="mix-blend-mode: normal"><path d="M-88.26201,32.97951l-0.24705,-0.0247l-1.15049,0.18047l-1.91935,-0.48745l-0.58936,-0.05894l-1.41313,-0.44963l-7.08381,-1.79906l-1.55137,-1.74189l-7.13919,-6.16566l-0.71794,-2.65637l-0.54899,-0.61641l-1.13993,-5.6326l-1.49939,-5.54774l0.21537,-0.79685l-0.54582,-2.69701l3.62811,-8.70748l0.60859,-2.25179l5.53138,-4.7771l1.06286,-1.03414l0.50078,-0.31628l1.49872,-1.29435l1.10974,-0.3531l0.20992,-0.13258l1.61088,-0.80544l3.20947,-2.13964l3.29082,-1.74825l0.06002,-0.03987l0.0595,-0.02363l0.05654,-0.03004l0.06925,-0.01991l3.46335,-1.37515l10.51051,-3.003l0.46157,-0.08334l0.4421,-0.15667l37.61913,-9.24182l1.17542,-0.16712l1.15159,-0.28876l49.46796,-7.2747l1.82222,-0.08451l1.81513,-0.18151h48.04805l1.93443,0.19344l0.2446,-0.01545l0.86118,0.12603l0.86604,0.0866l0.23355,0.07431l1.92359,0.2815l6.00601,1.5015l3.69488,1.32637l1.62693,1.00428l3.06793,0.82917l1.96928,2.28022l1.00984,0.62336l2.08058,2.95502l2.36218,2.73515l0.35983,1.13088l1.73452,2.46351l0.06033,3.17743l0.5797,1.82192l0.14288,1.42877h168.94144l1.54681,0.15468l1.55405,0.03837l12.01201,1.5015l2.40188,0.54726l2.40294,0.5426l4.5045,1.5015l3.58227,1.60584l3.75721,2.73831l0.2093,0.10405l0.648,-0.22985l1.85946,0.48195h2.97005l0.70163,-0.17754l1.12547,0.17754l15.03648,0l1.39375,-0.48904l0.71983,0.18919l-1.74736,-6.11577l-1.9639,-3.9278l-1.39754,-3.66855l-1.39754,-8.90933l2.79508,-11.00565l11.18034,-9.95749l14.6742,-2.96978l10.48157,4.36732l6.28894,6.46363l2.09631,3.31916l3.003,6.00601l0.82363,2.16202l0.85379,2.15029l3.003,10.51051l0.07426,0.41128l0.1412,0.39336l2.76766,11.07064l37.38404,0l1.28552,-0.46627l1.17617,0.29597l1.62729,-0.3951l0.62854,0.23392l0.88226,-0.15966l0.77489,0.34183l1.13704,-0.11837l2.23094,1.1921l8.1814,-1.23961l14.78201,-24.94464l0.12428,-0.16881l0.09155,-0.18857l12.01201,-19.51952l0.27634,-0.36252l0.21386,-0.40255l5.52838,-8.29258l5.23453,-9.16043l4.19418,-8.38836l0.64505,-1.02132l1.33377,-3.23915l2.91448,-1.93337l3.49196,-3.58896l5.15813,-2.14922l0.9116,-0.60472l0.62676,-0.03626l3.78508,-1.57712l5.21897,1.05622l5.31589,-0.30753l3.524,2.09656l0.61533,0.12453l0.81691,0.72756l4.80235,2.85709l2.94931,4.04672l2.61177,2.32611l0.86228,3.39521l0.49413,1.10228l1.5015,4.5045l0.86469,3.82932l0.00119,0.08711l0.02641,0.08302l0.39063,3.90625v34.53453l-0.08296,0.82965l0.02759,0.83333l-0.38507,5.77608l2.40769,-0.3648l110.06557,-125.28741l29.24033,-36.20231l0.04136,-0.10559l0.24454,-0.24838l1.56543,-1.93815l2.75833,-2.79339l0.95554,-0.6306l0.80321,-0.81582l3.27337,-2.16713l2.17107,-1.14448l0.67972,-0.57735l1.93213,-0.59734l1.97244,-0.80034l1.46332,-0.26186l5.48053,-1.69436l1.47923,0.4489l0.45418,-0.08128l11.06315,2.55803l1.31931,1.41876l0.01066,0.00324l4.43064,4.77284l4.43474,4.76903l0.00244,0.01087l1.31809,1.41989l1.73906,11.22107l-0.11439,0.44699l0.33911,1.50819l-2.09208,5.34137l-0.36857,1.44015l-0.94296,1.90838l-0.73755,1.88307l-0.62569,0.63551l-21.95538,35.12861l-1.19484,1.54505l-1.12738,1.59494l-77.68731,89.47913l73.13286,-2.55154l32.59015,-62.34637l1.85119,-2.81732l0.78207,-1.52748l3.67906,-3.05686l2.24782,-2.22849l0.82907,-0.32805l1.97775,-1.64328l2.90256,-0.28775l4.84917,-1.91871l4.48885,0.99296l2.65809,-0.26352l3.60284,1.64847l3.86854,0.85574l1.96237,1.81217l4.18054,1.91279l2.71338,4.45348l0.0114,0.01053l1.40365,-0.88651l3.003,-1.5015l3.66855,-1.39754l0.9411,-0.14762l2.31372,-0.92647l3.12552,0.07325l2.52899,-0.3967l1.97795,0.50234l3.71946,0.08717l1.87713,1.33418l3.43111,0.87139l3.80363,4.27074l3.09144,2.19726l1.17192,2.58967l1.89051,2.12267l0.75233,3.71738l2.35785,5.21031l-0.59722,3.4893l0.45682,2.2572l-1.43095,3.43429l-0.34428,2.01149l-1.38963,2.1499l-1.20245,2.88589l-1.78631,1.73803l-0.51712,0.80003l-2.76703,2.78477l-24.59392,20.25381l-4.517,4.517h16.22124l3.90625,0.39063l0.08302,0.02641l0.08711,0.00119l3.82932,0.86469l13.51351,4.5045l0.5865,0.26291l1.50781,0.32917l1.31099,0.93443l0.17697,0.07933l2.91675,2.12577l2.93904,2.09485l0.13122,0.1428l1.30105,0.94822l0.78909,1.32634l0.43489,0.47326l4.5045,6.00601l2.03125,3.35938l2.96875,8.51563l-0.02558,0.37088l0.55722,1.34893l-0.97853,4.76015l-0.33436,4.84817l-0.89867,1.14999l-0.07486,0.36415l-5.14443,7.40703l-2.85802,2.6913l-39.03904,30.03003l-1.22429,0.76081l-1.15609,0.86092l-117.38635,70.43181l57.58288,9.59715l3.78888,1.02749l0.87704,0.44905l0.95455,0.24429l3.51952,1.73906l11.39473,7.12171l1.82043,0.49201l7.42188,8.59375l0.10166,0.31949l0.21705,0.25553l3.3539,10.84842l-0.54761,1.80449v10.77472l0.15576,0.61332l-0.15576,0.993l0,0.40454l-0.39062,3.90625l-0.56327,1.77027l-0.28789,1.83527l-1.39754,3.66855l-0.18092,0.36183l-0.30476,0.95783l-0.41361,0.47891l-0.60221,1.20443l-1.04447,1.65375l-0.97287,1.69686l-7.50751,10.51051l-1.33842,1.52627l-0.13698,0.21794l-0.57143,0.58989l-0.54149,0.61749l-0.20609,0.15424l-1.41242,1.45806l-106.60661,90.09009l-0.88894,0.61071l-0.81429,0.70719l-41.44826,29.30685l-11.58356,10.69252l-0.87588,0.66l-0.01181,0.01348l-1.12489,0.84305l-1.12269,0.84597l-0.01623,0.00759l-0.8776,0.65771l-18.97876,11.46633l-5.13733,7.19226l-0.72581,0.82768l-0.00957,0.01694l-0.92796,1.05218l-0.92498,1.0548l-0.01558,0.01166l-0.72815,0.82562l-21.02102,19.51952l-1.59606,1.21008l-1.54771,1.27134l-67.14323,44.76215l-26.9319,19.58684l-143.83009,172.59611l-0.80943,0.79498l-0.71843,0.87808l-63.06306,63.06306l-1.37219,1.1227l-1.30548,1.19963l-24.02402,18.01802l-0.16716,0.10108l-0.7892,0.81643l-1.84211,0.7746l-0.5609,0.33915l-1.43721,0.50105l-6.62707,2.78665l-2.2135,-0.44047l-9.56597,-0.65972l-2.13547,-1.66877l-0.76885,-0.153l-4.3334,-3.83419l-4.55916,-3.56279l-0.29044,-0.72814l-2.02972,-1.7959l-2.39055,-9.28591l-0.83616,-2.09629l1.53334,-7.02369l0.23097,-1.50442l0.23135,-0.61328l0.42622,-1.95236l0.65907,-0.92467l0.06895,-0.18277l91.59159,-184.68468l0.4604,-0.73425l0.36122,-0.78779l9.51665,-16.25761l-1.78969,-2.37491l-0.27294,-5.31426l-0.93636,-2.78779l0.6692,-2.4139l-0.04233,-0.82412l1.09402,-2.96948l1.31262,-4.73482l1.09567,-1.36958l1.70522,-2.71158l30.69703,-39.46761l0.42626,-0.44784l0.35454,-0.50651l7.75501,-9.01564l-90.19828,66.85284l-0.63211,0.37732l-0.573,0.46217l-117.11712,76.57658l-1.68959,0.87835l-1.64657,0.95658l-99.0991,45.04505l-1.87793,0.63686l-0.22165,0.11763l-0.8151,0.23396l-0.80309,0.27235l-0.24916,0.02968l-1.90601,0.5471l-33.03303,6.00601l-2.23803,0.17984l-2.2341,0.22341h-7.50751l-1.20197,-0.1202l-3.49366,0.25563l-3.03266,-1.74216l-4.77171,-1.51827l-4.22911,-3.65241l-0.94856,-0.54492l-0.31273,-0.54437l-3.10335,-2.68017l-1.38928,-5.14035l-2.6524,-4.61715l0.29924,-4.08957l-0.1638,-0.60606l0.28542,-1.05605l0.40779,-5.57308l2.30053,-4.44769l0.91252,-3.37631l2.65115,-2.28963l0.76493,-0.93491l7.50751,-7.50751l1.34423,-1.09982l1.27545,-1.17888l173.77986,-131.12481c-10.81088,-0.37418 -21.39958,-1.93153 -26.42336,-6.27025l-2.41492,0.92276c-22.5817,3.56553 -45.62332,3.58499 -68.92375,4.24846c-3.99772,0.11383 -19.50109,1.75655 -26.48583,-0.46586c-4.34094,-1.38121 -11.75031,-7.72287 -13.65109,-10.01003c-0.9546,-1.14865 0.31815,-4.18774 -1.16903,-4.32541c-3.07711,-0.28485 -5.80465,2.13896 -8.61712,3.41949c-4.99794,2.27559 -9.83832,4.88363 -14.79795,7.24155c-8.5899,4.08384 -19.13404,5.67451 -28.21614,2.64714c-3.38274,-1.12758 -4.79878,-3.40102 -7.30316,-5.9054c-1.10973,-1.10973 -2.53747,-1.88961 -3.56326,-3.07736c-1.24347,-1.4398 -1.74216,-4.66554 -2.21892,-6.47151c-2.62225,-9.93308 -2.82663,-18.59193 4.78553,-27.10022c11.69636,-13.0733 23.46601,-26.08169 35.33333,-39c1.76658,-1.92303 5.06008,-4.42296 7.39273,-5.59832c0.16591,-0.0836 0.33184,-0.16716 0.49779,-0.25068h-21.97788l-1.85001,0.55551l-0.23416,-0.07314l-0.30965,0.08584l-2.27113,-0.76282l-0.49999,-0.05l-1.82568,0.07438l-1.09102,-0.41514l-2.84032,-0.19588l-2.10795,-1.64728l-2.18892,-0.69647l-0.36448,-0.31478l-0.33665,-0.1281l-1.252,-0.33838l-0.17753,-0.20556l-0.25386,-0.09659l-0.70553,-1.00361l-1.50798,-0.77492l-1.15557,-2.10708l-0.26641,-0.23008l-1.86187,-1.2351l-0.23827,-0.57865l-0.47361,-0.40903l-0.41246,-1.52611l-0.36879,-0.42702l-0.32435,-1.0194l-1.31891,-1.44415l-0.04663,-0.31793l-0.16154,-0.18462l-0.39768,-3.1814l-0.58118,-1.41145l0.02301,-1.67974l-0.86459,-2.16757l0.42888,-1.96455l-0.04805,-0.32758l0.0666,-0.25171l-0.03542,-0.28334l0.13485,-0.46905l0,-70.6911l-0.26377,-0.49245l0.26377,-2.55843v-47.05553l0.07958,-0.79581l-0.15796,-1.62095l0.4674,-1.4735l0.0016,-0.01599l1.13045,-3.55284l1.12729,-3.55384l0.00792,-0.01398l0.46871,-1.47309l1.0645,-1.23258l0.3943,-0.69582l66.66667,-94.33333l2.46232,-2.83658l0.03583,-0.05043l0.0398,-0.03669l0.03549,-0.04088l0.04934,-0.03732l2.76179,-2.54593l46.08344,-34.67665zM522.40784,285.57773l10.18913,-2.86569l1.49612,-0.26375l1.47109,-0.37927l19.51952,-3.003l1.89296,-0.10038l22.63121,-16.00187l98.15667,-82.9493l-45.32242,-7.55374l-18.41735,-1.41672l-3.45677,-0.61632l-0.13865,-0.01006l-0.13305,-0.03838l-0.13632,-0.02431l-0.12885,-0.05219l-3.37372,-0.97319l-4.49841,-1.79936zM270.08684,519.86219l-25.53824,51.49514l61.2209,-73.46508l-4.32238,-10.49722l0.02698,-1.96964l-0.88412,-2.33807l0.97229,-4.09795l0.00838,-0.61176l0.86469,-3.82932l0.62672,-1.88016l0.14927,-0.62912l0.10995,-0.14852l0.61557,-1.8467l0.2234,-0.49835l0.30863,-1.45591l0.94783,-1.34696l0.12599,-0.28106l2.08189,-2.85654l2.03416,-2.89072l0.22553,-0.20977l0.97007,-1.33103l1.27902,-0.76094l0.39989,-0.37195l49.54207,-37.62688l-0.23313,-2.28601l-0.28953,-0.63279l0.11091,-1.11871l-0.54004,-5.29535l1.5604,-4.99699l0.24009,-2.42182l-57.67312,56.1283zM506.90308,100.16424l16.78123,-12.87104l-0.0326,-0.04483l-1.98163,-3.38888l-0.27275,-0.82099l-0.45442,-0.73615l-1.32637,-3.69488l-0.45116,-1.80465l-2.35465,-2.94331l-3.11064,-0.51844l-0.39757,0.45792l-18.74016,22.14747l-6.17232,16.25879zM612.15208,19.43928l-43.8984,1.53157l-10.46098,1.585l-10.09738,11.63002l1.6753,1.24757l0.33893,0.38463l0.42655,0.28437l2.74524,2.80625l6.00601,7.50751l0.59046,0.91099l0.68908,0.83888l3.003,4.5045l1.63723,3.08185zM726.88546,16.46299l-22.50985,0l-0.48645,0.48645l-15.12311,22.3852zM105.8509,464.95748l52.85223,-34.55722l45.19678,-33.49879c-7.35783,4.19775 -15.14225,8.60662 -22.07932,12.64461c-1.82237,1.06078 -3.94465,2.0016 -6.29148,2.83603z"/></g></g></svg>