<svg version="1.1" xmlns="http://www.w3.org/2000/svg" xmlns:xlink="http://www.w3.org/1999/xlink" width="296.78413" height="241.49999" viewBox="0,0,296.78413,241.49999"><g transform="translate(-28.24999,-86.05001)"><g data-paper-data="{&quot;isPaintingLayer&quot;:true}" fill-rule="nonzero" stroke-linecap="butt" stroke-linejoin="miter" stroke-miterlimit="10" stroke-dasharray="" stroke-dashoffset="0" style="mix-blend-mode: normal"><path d="M165.91596,145.05125c0,32.44742 -30.359,58.75124 -67.80873,58.75124c-37.44973,0 -67.80873,-26.30383 -67.80873,-58.75124c0,-32.44742 30.359,-58.75124 67.80873,-58.75124c37.44973,0 67.80873,26.30383 67.80873,58.75124z" fill="#41d980" stroke="#41d87a" stroke-width="0.5"/><path d="M324.78412,146.25025c0,32.44742 -30.359,58.75124 -67.80873,58.75124c-37.44973,0 -67.80873,-26.30383 -67.80873,-58.75124c0,-32.44742 30.359,-58.75124 67.80873,-58.75124c37.44973,0 67.80873,26.30383 67.80873,58.75124z" fill="#41d980" stroke="#41d87a" stroke-width="0.5"/><path d="M164.11745,267.94926c0,32.44742 -30.359,58.75124 -67.80873,58.75124c-37.44973,0 -67.80873,-26.30383 -67.80873,-58.75124c0,-32.44742 30.359,-58.75124 67.80873,-58.75124c37.44973,0 67.80873,26.30383 67.80873,58.75124z" fill="#41d980" stroke="#41d87a" stroke-width="0.5"/><path d="M324.18462,267.94926c0,32.44742 -30.359,58.75124 -67.80873,58.75124c-37.44973,0 -67.80873,-26.30383 -67.80873,-58.75124c0,-32.44742 30.359,-58.75124 67.80873,-58.75124c37.44973,0 67.80873,26.30383 67.80873,58.75124z" fill="#41d980" stroke="#41d87a" stroke-width="0.5"/><path d="M30.29851,281.13831v-141.48259h236.20398v141.48259z" fill="#41d980" stroke="#41d87a" stroke-width="0.5"/><path d="M98.04229,152.84478v-65.94527h156.47015v65.94527z" fill="#41d980" stroke="#41d87a" stroke-width="0.5"/><path d="M190.36567,248.76518v-117.50249h133.08955v117.50249z" fill="#41d980" stroke="#41d87a" stroke-width="0.5"/><path d="M291.08209,287.13334v-74.33831h32.37313v74.33831z" fill="#41d980" stroke="#41d87a" stroke-width="0.5"/><path d="M93.84577,327.3v-61.74876h165.46269v61.74876z" fill="#41d980" stroke="#41d87a" stroke-width="0.5"/><text transform="translate(77.5,290.3) scale(0.5,0.5)" font-size="40" xml:space="preserve" fill="#000000" fill-rule="nonzero" stroke="none" stroke-width="1" stroke-linecap="butt" stroke-linejoin="miter" stroke-miterlimit="10" stroke-dasharray="" stroke-dashoffset="0" font-family="Sans Serif" font-weight="normal" text-anchor="start" style="mix-blend-mode: normal"><tspan x="0" dy="0">Clicca Per Spegnere</tspan></text><text transform="translate(128.86826,116.57845) scale(0.5,0.5)" font-size="40" xml:space="preserve" fill="#000000" fill-rule="nonzero" stroke="none" stroke-width="1" stroke-linecap="butt" stroke-linejoin="miter" stroke-miterlimit="10" stroke-dasharray="" stroke-dashoffset="0" font-family="Pixel" font-weight="normal" text-anchor="start" style="mix-blend-mode: normal"><tspan x="0" dy="0">DomeOS</tspan></text><text transform="translate(106.5,227.8) scale(0.97671,0.97671)" font-size="40" xml:space="preserve" fill="#ff0000" fill-rule="nonzero" stroke="none" stroke-width="1" stroke-linecap="butt" stroke-linejoin="miter" stroke-miterlimit="10" stroke-dasharray="" stroke-dashoffset="0" font-family="Pixel" font-weight="normal" text-anchor="start" style="mix-blend-mode: normal"><tspan x="0" dy="0">Start</tspan></text></g></g></svg>