<svg version="1.1" xmlns="http://www.w3.org/2000/svg" xmlns:xlink="http://www.w3.org/1999/xlink" width="28.66667" height="28.66667" viewBox="0,0,28.66667,28.66667"><g transform="translate(-46.83333,-94.30002)"><g data-paper-data="{&quot;isPaintingLayer&quot;:true}" fill-rule="nonzero" stroke="none" stroke-width="0.5" stroke-linecap="butt" stroke-linejoin="miter" stroke-miterlimit="10" stroke-dasharray="" stroke-dashoffset="0" style="mix-blend-mode: normal"><path d="M46.83333,108.63335c0,-7.91608 6.41725,-14.33333 14.33333,-14.33333c7.91608,0 14.33333,6.41725 14.33333,14.33333c0,7.91608 -6.41725,14.33333 -14.33333,14.33333c-7.91608,0 -14.33333,-6.41725 -14.33333,-14.33333z" fill="#3b7830"/><path d="M53.13018,117.59868c-1.10112,-0.9176 -0.18352,-2.01871 -0.18352,-2.01871l0.46238,-0.55486c-0.2815,-0.24907 -0.56034,-0.54733 -0.83407,-0.87426c-0.12316,0.08808 -0.24638,0.17613 -0.36965,0.26418l-0.73755,0.55365c0,0 -1.14667,0.86 -2.00667,-0.28667c-0.86,-1.14667 0.28667,-2.00667 0.28667,-2.00667l0.79134,-0.59302c0.11777,-0.08412 0.2355,-0.16824 0.35317,-0.25239c-0.24008,-0.35498 -0.46971,-0.69417 -0.68642,-0.99704c0,0 -0.83311,-1.16635 0.33324,-1.99946c1.16635,-0.83311 1.99946,0.33324 1.99946,0.33324c0.21159,0.29679 0.43544,0.63695 0.66949,0.99317c0.27083,-0.19778 0.54115,-0.39634 0.81086,-0.5959c0.01786,-0.02727 0.02886,-0.04194 0.02886,-0.04194l0.8024,-1.00556c0.7328,-0.60614 1.3781,-1.26333 1.97509,-1.9508c-0.39557,-0.50836 -0.74113,-1.08398 -1.03715,-1.73458c0,0 -0.56462,-1.31745 0.75283,-1.88206c1.31745,-0.56462 1.88206,0.75283 1.88206,0.75283c0.07116,0.1837 0.15156,0.35837 0.24062,0.52432c0.68782,-0.93162 1.36676,-1.87555 2.1186,-2.78841c0,0 0.9176,-1.10112 2.01871,-0.18352c1.10112,0.9176 0.18352,2.01871 0.18352,2.01871c-0.66303,0.78408 -1.05935,1.76201 -1.65834,2.59604c-0.10372,0.14442 -0.2115,0.28937 -0.32287,0.43452c0.38498,0.1664 0.7965,0.29683 1.22772,0.39464l0.85053,0.54437c1.14391,-0.84355 2.73792,-1.46967 3.97055,-2.00016c0,0 1.31744,-0.56462 1.88206,0.75282c0.56462,1.31744 -0.75282,1.88206 -0.75282,1.88206c-1.2136,0.51767 -2.30551,1.19009 -3.33728,1.94382c0.23971,0.15764 0.48958,0.30407 0.75478,0.43409c1.22072,0.5985 2.50301,1.07654 3.68457,1.74906l0.52552,0.03009c0,0 1.4055,0.2811 1.1244,1.6866c-0.2811,1.4055 -1.6866,1.1244 -1.6866,1.1244l-1.38559,-0.35213c-1.144,-0.65662 -2.40188,-1.09308 -3.57766,-1.69094c-0.64886,-0.32994 -1.19391,-0.73332 -1.71588,-1.15299c-1.21454,1.03907 -2.40844,2.11758 -3.70036,3.09395c0.21362,0.0958 0.41551,0.18941 0.59937,0.28127l1.13696,1.03293c0,0 1.01352,1.01352 0,2.02704c-1.01352,1.01352 -2.02704,0 -2.02704,0l-0.39193,-0.49595c-0.65246,-0.32648 -1.47051,-0.67739 -2.27579,-1.06086l-0.03085,0.01275l-0.72902,0.87481c0,0 -0.9176,1.10112 -2.01871,0.18352zM60.21665,109.90649c0,0 -0.74665,-0.42666 -0.7528,-1.19736c-0.13146,-0.06607 -0.26028,-0.1349 -0.38648,-0.20658c-0.67396,0.68979 -1.37884,1.34653 -2.05925,1.93316c-0.11439,0.55155 -0.58145,0.90185 -0.58145,0.90185c-0.51042,0.38277 -1.02325,0.76133 -1.53788,1.13715c0.15244,0.16557 0.30668,0.31679 0.46235,0.44871c0.16568,0.1404 0.35649,0.27568 0.56493,0.40635c1.57029,-0.93707 3.16186,-2.05481 4.55481,-3.26849c-0.0863,-0.05286 -0.1743,-0.10451 -0.26424,-0.15479z" fill="#ffffff"/></g></g></svg>